<?xml version="1.0" encoding="utf-8"?>
<!-- Generator: Adobe Illustrator 27.7.0, SVG Export Plug-In . SVG Version: 6.00 Build 0)  -->
<svg version="1.1" id="Warstwa_1" xmlns="http://www.w3.org/2000/svg" xmlns:xlink="http://www.w3.org/1999/xlink" x="0px" y="0px"
	 viewBox="0 0 17 17" style="enable-background:new 0 0 17 17;" xml:space="preserve">
<style type="text/css">
	.st0{clip-path:url(#SVGID_00000119082327980861435970000006046224703696906630_);fill:#020203;}
	.st1{clip-path:url(#SVGID_00000142877152604166335650000013400694252476656562_);fill:#020203;}
	.st2{clip-path:url(#SVGID_00000026858491217318001850000004152505556186015659_);fill:#020203;}
	.st3{clip-path:url(#SVGID_00000035530066316095013750000010679534434924292797_);fill:#020203;}
	.st4{fill:#FFFFFF;}
</style>
<g>
	<g>
		<g>
			<defs>
				<rect id="SVGID_1_" x="0" y="0" width="17" height="17"/>
			</defs>
			<clipPath id="SVGID_00000160899462793929703950000001574392327238854335_">
				<use xlink:href="#SVGID_1_"  style="overflow:visible;"/>
			</clipPath>
			<path style="clip-path:url(#SVGID_00000160899462793929703950000001574392327238854335_);fill:#020203;" d="M14.6,14.6h-2.5v-3.9
				c0-0.9,0-2.2-1.3-2.2s-1.5,1-1.5,2.1v4H6.8V6.5h2.4v1.1l0,0c0.3-0.6,1.2-1.3,2.4-1.3c2.6,0,3,1.7,3,3.9V14.6z"/>
		</g>
		<g>
			<defs>
				<rect id="SVGID_00000136383011833062506970000017979140136047975357_" x="0" y="0" width="17" height="17"/>
			</defs>
			<clipPath id="SVGID_00000162334005575087098990000014232567017235522697_">
				<use xlink:href="#SVGID_00000136383011833062506970000017979140136047975357_"  style="overflow:visible;"/>
			</clipPath>
			<path style="clip-path:url(#SVGID_00000162334005575087098990000014232567017235522697_);fill:#020203;" d="M3.9,5.3
				c-0.8,0-1.5-0.7-1.5-1.5s0.7-1.5,1.5-1.5S5.4,3,5.4,3.8C5.4,4.7,4.7,5.3,3.9,5.3"/>
		</g>
		<g>
			<defs>
				<rect id="SVGID_00000024000062952718371890000000372378181121998210_" x="0" y="0" width="17" height="17"/>
			</defs>
			<clipPath id="SVGID_00000135659085534681753330000001202687376451604884_">
				<use xlink:href="#SVGID_00000024000062952718371890000000372378181121998210_"  style="overflow:visible;"/>
			</clipPath>
			<polygon style="clip-path:url(#SVGID_00000135659085534681753330000001202687376451604884_);fill:#020203;" points="5.2,14.6 
				2.6,14.6 2.6,6.4 5.2,6.4 			"/>
		</g>
		<g>
			<defs>
				<rect id="SVGID_00000168092864458470897620000003572837268695129502_" x="0" y="0" width="17" height="17"/>
			</defs>
			<clipPath id="SVGID_00000153666801601389782260000013456430146766662579_">
				<use xlink:href="#SVGID_00000168092864458470897620000003572837268695129502_"  style="overflow:visible;"/>
			</clipPath>
			<path style="clip-path:url(#SVGID_00000153666801601389782260000013456430146766662579_);fill:#020203;" d="M15.8,0H1.2
				C0.5,0,0,0.6,0,1.2v14.6C0,16.5,0.5,17,1.2,17h14.6c0.7,0,1.2-0.6,1.2-1.2V1.2C17,0.5,16.5,0,15.8,0"/>
		</g>
	</g>
	<path class="st4" d="M11.7,4.3c0-0.5-0.4-1-1-1H8.8c-0.5,0-1,0.4-1,1v1H6.5V3.9c0-0.3-0.2-0.5-0.5-0.5S5.5,3.6,5.5,3.9v1.4H4.2V3.9
		c0-0.3-0.2-0.5-0.5-0.5S3.2,3.6,3.2,3.9v1.4H2.9c-0.5,0-1,0.4-1,1v1.9v4.5c0,0.5,0.4,1,1,1H8h0.6h1.9h3.2c0.5,0,1-0.4,1-1V8.2
		c0-0.5-0.4-1-1-1h-2.2V4.3H11.7z M13.6,10.7v0.6c0,0.2-0.1,0.3-0.3,0.3h-0.6c-0.2,0-0.3-0.1-0.3-0.3v-0.6c0-0.2,0.1-0.3,0.3-0.3
		h0.6C13.5,10.4,13.6,10.5,13.6,10.7z M6.9,11.7H6.3c-0.2,0-0.3-0.1-0.3-0.3v-0.6c0-0.2,0.1-0.3,0.3-0.3h0.6c0.2,0,0.3,0.1,0.3,0.3
		v0.6C7.2,11.5,7.1,11.7,6.9,11.7z M4.7,11.4c0,0.2-0.1,0.3-0.3,0.3H3.8c-0.2,0-0.3-0.1-0.3-0.3v-0.6c0-0.2,0.1-0.3,0.3-0.3h0.6
		c0.2,0,0.3,0.1,0.3,0.3V11.4z M13.3,8.5c0.2,0,0.3,0.1,0.3,0.3v0.6c0,0.2-0.1,0.3-0.3,0.3h-0.6c-0.2,0-0.3-0.1-0.3-0.3V8.8
		c0-0.2,0.1-0.3,0.3-0.3H13.3z M7.2,6.9v0.6c0,0.2-0.1,0.3-0.3,0.3H6.3C6.1,7.8,6,7.7,6,7.5V6.9c0-0.2,0.1-0.3,0.3-0.3h0.6
		C7.1,6.6,7.2,6.7,7.2,6.9z M4.4,6.6c0.2,0,0.3,0.1,0.3,0.3v0.6c0,0.2-0.1,0.3-0.3,0.3H3.8c-0.2,0-0.3-0.1-0.3-0.3V6.9
		c0-0.2,0.1-0.3,0.3-0.3H4.4z M7.2,9.4c0,0.2-0.1,0.3-0.3,0.3H6.3C6.1,9.7,6,9.6,6,9.4V8.8c0-0.2,0.1-0.3,0.3-0.3h0.6
		c0.2,0,0.3,0.1,0.3,0.3V9.4z M4.4,9.8H3.8c-0.2,0-0.3-0.1-0.3-0.3V8.9c0-0.2,0.1-0.3,0.3-0.3h0.6c0.2,0,0.3,0.1,0.3,0.3v0.6
		C4.7,9.6,4.5,9.8,4.4,9.8z M10.4,8.8v0.6c0,0.2-0.1,0.3-0.3,0.3H9.5c-0.2,0-0.3-0.1-0.3-0.3V8.8c0-0.2,0.1-0.3,0.3-0.3h0.6
		C10.3,8.5,10.4,8.6,10.4,8.8z M10.1,4.7c0.2,0,0.3,0.1,0.3,0.3v0.6c0,0.2-0.1,0.3-0.3,0.3H9.5c-0.2,0-0.3-0.1-0.3-0.3V5
		c0-0.2,0.1-0.3,0.3-0.3H10.1z M10.4,6.9v0.6c0,0.2-0.1,0.3-0.3,0.3H9.5c-0.2,0-0.3-0.1-0.3-0.3V6.9c0-0.2,0.1-0.3,0.3-0.3h0.6
		C10.3,6.6,10.4,6.7,10.4,6.9z"/>
</g>
</svg>
