<?xml version="1.0" encoding="utf-8"?>
<!-- Generator: Adobe Illustrator 27.7.0, SVG Export Plug-In . SVG Version: 6.00 Build 0)  -->
<svg version="1.1" id="Warstwa_1" xmlns="http://www.w3.org/2000/svg" xmlns:xlink="http://www.w3.org/1999/xlink" x="0px" y="0px"
	 viewBox="0 0 17 17" style="enable-background:new 0 0 17 17;" xml:space="preserve">
<style type="text/css">
	.st0{clip-path:url(#SVGID_00000160889812003873433240000010299913873125118136_);fill:#020203;}
	.st1{clip-path:url(#SVGID_00000028306802106630334140000009746352386769803908_);fill:#020203;}
	.st2{clip-path:url(#SVGID_00000054233333037850970260000011823330604635146916_);fill:#020203;}
	.st3{clip-path:url(#SVGID_00000050658369993150423350000005960338796464748197_);fill:#020203;}
	.st4{fill:#FFFFFF;}
</style>
<g>
	<g>
		<g>
			<defs>
				<rect id="SVGID_1_" x="0" width="17" height="17"/>
			</defs>
			<clipPath id="SVGID_00000160172231850403505490000007878053894551164347_">
				<use xlink:href="#SVGID_1_"  style="overflow:visible;"/>
			</clipPath>
			<path style="clip-path:url(#SVGID_00000160172231850403505490000007878053894551164347_);fill:#020203;" d="M14.6,14.6h-2.5v-3.9
				c0-0.9,0-2.2-1.3-2.2s-1.5,1-1.5,2.1v4H6.8V6.5h2.4v1.1l0,0c0.3-0.6,1.2-1.3,2.4-1.3c2.6,0,3,1.7,3,3.9V14.6z"/>
		</g>
		<g>
			<defs>
				<rect id="SVGID_00000181808770207544417080000008094740704448292026_" x="0" width="17" height="17"/>
			</defs>
			<clipPath id="SVGID_00000103258805551982186090000010563503338109669050_">
				<use xlink:href="#SVGID_00000181808770207544417080000008094740704448292026_"  style="overflow:visible;"/>
			</clipPath>
			<path style="clip-path:url(#SVGID_00000103258805551982186090000010563503338109669050_);fill:#020203;" d="M3.9,5.4
				c-0.8,0-1.5-0.7-1.5-1.5s0.7-1.5,1.5-1.5s1.5,0.7,1.5,1.5S4.7,5.4,3.9,5.4"/>
		</g>
		<g>
			<defs>
				<rect id="SVGID_00000183929976216447975330000002316606575553035687_" x="0" width="17" height="17"/>
			</defs>
			<clipPath id="SVGID_00000064313606951348891160000007226063605076027808_">
				<use xlink:href="#SVGID_00000183929976216447975330000002316606575553035687_"  style="overflow:visible;"/>
			</clipPath>
			<polygon style="clip-path:url(#SVGID_00000064313606951348891160000007226063605076027808_);fill:#020203;" points="5.2,14.6 
				2.6,14.6 2.6,6.5 5.2,6.5 			"/>
		</g>
		<g>
			<defs>
				<rect id="SVGID_00000009577502415294190530000011890137654262752934_" x="0" width="17" height="17"/>
			</defs>
			<clipPath id="SVGID_00000173123367865227860620000002832528307299571640_">
				<use xlink:href="#SVGID_00000009577502415294190530000011890137654262752934_"  style="overflow:visible;"/>
			</clipPath>
			<path style="clip-path:url(#SVGID_00000173123367865227860620000002832528307299571640_);fill:#020203;" d="M15.8,0H1.2
				C0.5,0,0,0.6,0,1.2v14.6C0,16.5,0.5,17,1.2,17h14.6c0.7,0,1.2-0.6,1.2-1.2V1.2C17,0.6,16.5,0,15.8,0"/>
		</g>
	</g>
	<path class="st4" d="M6.2,8.1c0.7,0.5,1.4,1.1,1.9,1.8c0.2,0.2,0.3,0.4,0.4,0.7c0.1-0.2,0.3-0.5,0.4-0.7c0.5-0.7,1.2-1.3,1.9-1.8
		c1-0.6,2.2-1,3.4-1h0.2c0.2,0,0.4,0.2,0.4,0.4c0,3.3-2.7,5.9-5.9,5.9H8.5H8.1c-3.3,0-5.9-2.7-5.9-5.9c0-0.2,0.2-0.4,0.4-0.4h0.2
		C4,7.1,5.2,7.5,6.2,8.1z M8.8,3.7c0.3,0.4,1.4,1.6,1.9,3.6C9.9,7.8,9.1,8.4,8.5,9.2C7.9,8.4,7.2,7.8,6.3,7.3C6.8,5.2,7.8,4,8.2,3.7
		c0.1-0.1,0.2-0.1,0.3-0.1S8.7,3.6,8.8,3.7z"/>
</g>
</svg>
