<?xml version="1.0" encoding="utf-8"?>
<!-- Generator: Adobe Illustrator 27.7.0, SVG Export Plug-In . SVG Version: 6.00 Build 0)  -->
<svg version="1.1" id="Warstwa_1" xmlns="http://www.w3.org/2000/svg" xmlns:xlink="http://www.w3.org/1999/xlink" x="0px" y="0px"
	 viewBox="0 0 17 17" style="enable-background:new 0 0 17 17;" xml:space="preserve">
<style type="text/css">
	.st0{clip-path:url(#SVGID_00000093867833276395329470000010525755550093889938_);fill:#020203;}
	.st1{clip-path:url(#SVGID_00000158739893175549695930000012647583948097373102_);fill:#020203;}
	.st2{clip-path:url(#SVGID_00000105416917681386598700000012184770049965890447_);fill:#020203;}
	.st3{clip-path:url(#SVGID_00000094576989806961963320000015654139700192492196_);fill:#020203;}
	.st4{fill:#FFFFFF;}
</style>
<g>
	<g>
		<g>
			<defs>
				<rect id="SVGID_1_" width="17" height="17"/>
			</defs>
			<clipPath id="SVGID_00000145047182082647283220000005188101425751669395_">
				<use xlink:href="#SVGID_1_"  style="overflow:visible;"/>
			</clipPath>
			<path style="clip-path:url(#SVGID_00000145047182082647283220000005188101425751669395_);fill:#020203;" d="M14.6,14.6h-2.5v-3.9
				c0-0.9,0-2.2-1.3-2.2s-1.5,1-1.5,2.1v4H6.8V6.5h2.4v1.1l0,0c0.3-0.6,1.2-1.3,2.4-1.3c2.6,0,3,1.7,3,3.9V14.6z"/>
		</g>
		<g>
			<defs>
				<rect id="SVGID_00000127001796696631835930000007556196225591941793_" width="17" height="17"/>
			</defs>
			<clipPath id="SVGID_00000172413789937609328780000005846007343283483048_">
				<use xlink:href="#SVGID_00000127001796696631835930000007556196225591941793_"  style="overflow:visible;"/>
			</clipPath>
			<path style="clip-path:url(#SVGID_00000172413789937609328780000005846007343283483048_);fill:#020203;" d="M3.9,5.4
				c-0.8,0-1.5-0.7-1.5-1.5s0.7-1.5,1.5-1.5s1.5,0.7,1.5,1.5S4.7,5.4,3.9,5.4"/>
		</g>
		<g>
			<defs>
				<rect id="SVGID_00000170266738316975928280000004182797836198971268_" width="17" height="17"/>
			</defs>
			<clipPath id="SVGID_00000013170416867338315780000014448294795945868447_">
				<use xlink:href="#SVGID_00000170266738316975928280000004182797836198971268_"  style="overflow:visible;"/>
			</clipPath>
			<polygon style="clip-path:url(#SVGID_00000013170416867338315780000014448294795945868447_);fill:#020203;" points="5.2,14.6 
				2.6,14.6 2.6,6.5 5.2,6.5 			"/>
		</g>
		<g>
			<defs>
				<rect id="SVGID_00000013191242220253391490000010125383495589787789_" width="17" height="17"/>
			</defs>
			<clipPath id="SVGID_00000055674031956606578300000013916764773390012589_">
				<use xlink:href="#SVGID_00000013191242220253391490000010125383495589787789_"  style="overflow:visible;"/>
			</clipPath>
			<path style="clip-path:url(#SVGID_00000055674031956606578300000013916764773390012589_);fill:#020203;" d="M15.8,0H1.2
				C0.5,0,0,0.6,0,1.2v14.6C0,16.5,0.5,17,1.2,17h14.6c0.7,0,1.2-0.6,1.2-1.2V1.2C17,0.6,16.5,0,15.8,0"/>
		</g>
	</g>
	<path class="st4" d="M14.9,8.5C14.9,8.6,14.9,8.6,14.9,8.5c0,1-0.8,1.6-1.7,1.6h-2.4c-0.7,0-1.2,0.5-1.2,1.2c0,0.1,0,0.2,0,0.2
		c0.1,0.3,0.2,0.5,0.3,0.7c0.2,0.3,0.3,0.7,0.3,1c0,0.8-0.5,1.5-1.3,1.5c-0.1,0-0.2,0-0.3,0c-3.5,0-6.4-2.9-6.4-6.4s2.9-6.4,6.4-6.4
		S14.9,5,14.9,8.5z M5.3,9.3c0-0.4-0.4-0.8-0.8-0.8S3.7,8.9,3.7,9.3s0.4,0.8,0.8,0.8S5.3,9.8,5.3,9.3z M5.3,6.9
		c0.4,0,0.8-0.4,0.8-0.8S5.7,5.3,5.3,5.3S4.5,5.7,4.5,6.1S4.9,6.9,5.3,6.9z M9.3,4.6c0-0.4-0.4-0.8-0.8-0.8S7.7,4.2,7.7,4.6
		c0,0.4,0.4,0.8,0.8,0.8S9.3,5,9.3,4.6z M11.7,6.9c0.4,0,0.8-0.4,0.8-0.8s-0.4-0.8-0.8-0.8s-0.8,0.4-0.8,0.8S11.3,6.9,11.7,6.9z"/>
</g>
</svg>
