<?xml version="1.0" encoding="utf-8"?>
<!-- Generator: Adobe Illustrator 27.7.0, SVG Export Plug-In . SVG Version: 6.00 Build 0)  -->
<svg version="1.1" id="Warstwa_1" xmlns="http://www.w3.org/2000/svg" xmlns:xlink="http://www.w3.org/1999/xlink" x="0px" y="0px"
	 viewBox="0 0 17 17" style="enable-background:new 0 0 17 17;" xml:space="preserve">
<style type="text/css">
	.st0{clip-path:url(#SVGID_00000059281793601929427060000006318692024633080469_);fill:#020203;}
	.st1{clip-path:url(#SVGID_00000146487698354380271790000018433939173269643198_);fill:#020203;}
	.st2{clip-path:url(#SVGID_00000103953872390096056230000009502815819583596695_);fill:#020203;}
	.st3{clip-path:url(#SVGID_00000126300798169897284000000003259375714330311556_);fill:#020203;}
	.st4{fill:#FFFFFF;}
</style>
<g>
	<g>
		<g>
			<defs>
				<rect id="SVGID_1_" x="0" width="17" height="17"/>
			</defs>
			<clipPath id="SVGID_00000029043786793976266720000009128051224459895191_">
				<use xlink:href="#SVGID_1_"  style="overflow:visible;"/>
			</clipPath>
			<path style="clip-path:url(#SVGID_00000029043786793976266720000009128051224459895191_);fill:#020203;" d="M14.6,14.6h-2.5v-3.9
				c0-0.9,0-2.2-1.3-2.2s-1.5,1-1.5,2.1v4H6.8V6.5h2.4v1.1l0,0c0.3-0.6,1.2-1.3,2.4-1.3c2.6,0,3,1.7,3,3.9V14.6z"/>
		</g>
		<g>
			<defs>
				<rect id="SVGID_00000071552405518109823030000016719964268196499621_" x="0" width="17" height="17"/>
			</defs>
			<clipPath id="SVGID_00000018944948899753892000000000911883337597591974_">
				<use xlink:href="#SVGID_00000071552405518109823030000016719964268196499621_"  style="overflow:visible;"/>
			</clipPath>
			<path style="clip-path:url(#SVGID_00000018944948899753892000000000911883337597591974_);fill:#020203;" d="M3.9,5.3
				c-0.8,0-1.5-0.7-1.5-1.5s0.7-1.5,1.5-1.5S5.4,3,5.4,3.8C5.3,4.7,4.7,5.3,3.9,5.3"/>
		</g>
		<g>
			<defs>
				<rect id="SVGID_00000179632404047748953420000016530960559529685892_" x="0" width="17" height="17"/>
			</defs>
			<clipPath id="SVGID_00000031165126651707898200000016481909484302780803_">
				<use xlink:href="#SVGID_00000179632404047748953420000016530960559529685892_"  style="overflow:visible;"/>
			</clipPath>
			<polygon style="clip-path:url(#SVGID_00000031165126651707898200000016481909484302780803_);fill:#020203;" points="5.1,14.6 
				2.6,14.6 2.6,6.5 5.1,6.5 			"/>
		</g>
		<g>
			<defs>
				<rect id="SVGID_00000047018445206883734080000004252191986221698449_" x="0" width="17" height="17"/>
			</defs>
			<clipPath id="SVGID_00000097484384240372826570000013221729203662568074_">
				<use xlink:href="#SVGID_00000047018445206883734080000004252191986221698449_"  style="overflow:visible;"/>
			</clipPath>
			<path style="clip-path:url(#SVGID_00000097484384240372826570000013221729203662568074_);fill:#020203;" d="M15.8,0H1.2
				C0.5,0,0,0.6,0,1.2v14.6C0,16.5,0.5,17,1.2,17h14.6c0.7,0,1.2-0.6,1.2-1.2V1.2C17,0.5,16.4,0,15.8,0"/>
		</g>
	</g>
	<path class="st4" d="M8.1,3.3c0-0.7,0.5-1.2,1.2-1.2s1.2,0.5,1.2,1.2S10,4.5,9.3,4.5C8.7,4.5,8.1,4,8.1,3.3z M9.4,7.9L8.9,9.8
		l1.2,1.2c0.2,0.2,0.4,0.5,0.4,0.8V14c0,0.4-0.4,0.8-0.8,0.8S8.9,14.4,8.9,14v-2.1l-1.8-1.8c-0.4-0.4-0.6-1-0.4-1.5l0.5-2.1
		c0.2-0.8,1.1-1.4,1.9-1.2c0.5,0.1,0.9,0.4,1.2,0.8L11,7.2h0.8V6.6c0-0.3,0.3-0.6,0.6-0.6S13,6.3,13,6.6V8l0,0l0,0v6.2
		c0,0.3-0.3,0.6-0.6,0.6s-0.6-0.3-0.6-0.6V8.8h-1c-0.4,0-0.8-0.2-1-0.5L9.4,7.9L9.4,7.9z M5.4,13.9l0.9-3.4c0.1,0.1,0.2,0.2,0.3,0.3
		l1,1l-0.7,2.5c-0.1,0.4-0.5,0.7-1,0.6S5.2,14.3,5.4,13.9L5.4,13.9z M6.7,5.3L5.8,8.8C5.7,9.1,5.4,9.3,5.1,9.2L3.9,9
		C3.6,8.9,3.3,8.6,3.4,8.3L4,6c0.2-0.9,1-1.5,1.9-1.5H6C6.6,4.5,6.8,4.9,6.7,5.3L6.7,5.3z"/>
</g>
</svg>
